<svg xmlns="http://www.w3.org/2000/svg" viewBox="0 0 616.06 692.55"><defs><style>.cls-1{fill:#fff;stroke:#fff;stroke-miterlimit:10;}</style></defs><g id="Layer_2" data-name="Layer 2"><g id="Layer_5" data-name="Layer 5"><polygon class="cls-1" points="320.08 308.43 320.08 454.68 550.85 685.45 615.56 620.74 615.56 542.76 553.72 542.76 320.08 308.43"/><polygon class="cls-1" points="615.56 514.47 556.6 514.47 320.07 277.3 320.08 136.19 615.56 432.24 615.56 514.47"/><polygon class="cls-1" points="320.08 108.19 320.08 0.62 368.99 0.62 615.56 247.2 615.56 285.96 498.24 285.96 320.08 108.19"/><polygon class="cls-1" points="521.83 309.94 615.56 309.94 615.56 403.67 521.83 309.94"/><polygon class="cls-1" points="123.2 483 212.24 395.32 212.37 220.68 296.89 135.17 296.89 455.44 60.49 691.84 0.81 631.67 0.76 432.05 88.75 344.23 89.48 516.72 123.2 483"/><polygon class="cls-1" points="112.25 462.63 189.43 385.44 189.64 214.97 296.85 107.76 296.71 0.5 252.84 0.52 0.5 252.64 0.57 404.04 112.36 291.75 112.25 462.63"/></g></g></svg>